<svg width="25" height="25" viewBox="0 0 25 25" fill="none" xmlns="http://www.w3.org/2000/svg">
<path d="M18.75 0H6.25C4.5924 0 3.00269 0.65848 1.83058 1.83058C0.65848 3.00269 0 4.5924 0 6.25V18.75C0 20.4076 0.65848 21.9973 1.83058 23.1694C3.00269 24.3416 4.5924 25 6.25 25H10.5469V16.1172H7.375V12.5H10.5469V9.75C10.5469 6.625 12.4141 4.88281 15.2344 4.88281C16.1739 4.89597 17.1112 4.97692 18.0391 5.125V8.20312H16.4766C16.2092 8.17081 15.9379 8.1985 15.6825 8.28418C15.4272 8.36985 15.1942 8.51138 15.0003 8.69844C14.8066 8.88551 14.6569 9.11342 14.5622 9.36559C14.4675 9.61777 14.4303 9.88786 14.4531 10.1562V12.5H17.9219L17.3672 16.1172H14.4531V25H18.75C20.4076 25 21.9973 24.3416 23.1694 23.1694C24.3416 21.9973 25 20.4076 25 18.75V6.25C25 4.5924 24.3416 3.00269 23.1694 1.83058C21.9973 0.65848 20.4076 0 18.75 0Z" fill="#505050"/>
</svg>
