<svg width="25" height="25" viewBox="0 0 25 25" fill="none" xmlns="http://www.w3.org/2000/svg">
<path d="M12.5 15.625C14.2259 15.625 15.625 14.2259 15.625 12.5C15.625 10.7741 14.2259 9.375 12.5 9.375C10.7741 9.375 9.375 10.7741 9.375 12.5C9.375 14.2259 10.7741 15.625 12.5 15.625Z" fill="#505050"/>
<path d="M16.2891 4.86719C15.2969 4.82031 15 4.8125 12.5 4.8125C10 4.8125 9.70312 4.8125 8.71094 4.86719C6.17188 4.98438 4.98438 6.1875 4.86719 8.71094C4.82031 9.70312 4.8125 10 4.8125 12.5C4.8125 15 4.8125 15.2969 4.86719 16.2891C4.98438 18.8047 6.16406 20.0156 8.71094 20.1328C9.70312 20.1797 10 20.1875 12.5 20.1875C15 20.1875 15.2969 20.1875 16.2891 20.1328C18.8359 20.0156 20.0156 18.8125 20.1328 16.2891C20.1797 15.2969 20.1875 15.0078 20.1875 12.5C20.1875 9.99219 20.1875 9.70312 20.1328 8.71094C20.0156 6.1875 18.8281 4.98438 16.2891 4.86719ZM12.5 17.3125C11.5482 17.3125 10.6177 17.0302 9.82632 16.5015C9.03491 15.9726 8.41807 15.221 8.05383 14.3417C7.68958 13.4623 7.59428 12.4947 7.77997 11.5611C7.96567 10.6276 8.42401 9.77008 9.09705 9.09705C9.77008 8.42401 10.6276 7.96567 11.5611 7.77997C12.4947 7.59428 13.4623 7.68958 14.3417 8.05383C15.221 8.41807 15.9726 9.03491 16.5015 9.82632C17.0302 10.6177 17.3125 11.5482 17.3125 12.5C17.3125 13.7764 16.8055 15.0004 15.9029 15.9029C15.0004 16.8055 13.7764 17.3125 12.5 17.3125ZM17.5078 8.59375C17.2853 8.59375 17.0678 8.52777 16.8828 8.40416C16.6978 8.28054 16.5536 8.10483 16.4684 7.89927C16.3833 7.6937 16.361 7.4675 16.4045 7.24927C16.4478 7.03104 16.555 6.83059 16.7123 6.67325C16.8697 6.51592 17.0701 6.40877 17.2883 6.36536C17.5066 6.32196 17.7328 6.34424 17.9383 6.42939C18.1439 6.51453 18.3196 6.65873 18.4432 6.84373C18.5669 7.02874 18.6328 7.24625 18.6328 7.46875C18.6339 7.61678 18.6054 7.76353 18.5493 7.9005C18.4931 8.03746 18.4103 8.16189 18.3056 8.26656C18.2009 8.37123 18.0766 8.45406 17.9396 8.51023C17.8026 8.5664 17.6558 8.59479 17.5078 8.59375Z" fill="#505050"/>
<path d="M18.75 0H6.25C4.5924 0 3.00269 0.65848 1.83058 1.83058C0.65848 3.00269 0 4.5924 0 6.25V18.75C0 20.4076 0.65848 21.9973 1.83058 23.1694C3.00269 24.3416 4.5924 25 6.25 25H18.75C20.4076 25 21.9973 24.3416 23.1694 23.1694C24.3416 21.9973 25 20.4076 25 18.75V6.25C25 4.5924 24.3416 3.00269 23.1694 1.83058C21.9973 0.65848 20.4076 0 18.75 0ZM21.8203 16.4062C21.6641 19.8125 19.7656 21.7031 16.3516 21.875C15.3672 21.875 15.0469 21.875 12.5 21.875C9.95312 21.875 9.63281 21.875 8.63281 21.8203C5.22656 21.6641 3.33594 19.7734 3.16406 16.3516C3.125 15.3672 3.125 15.0469 3.125 12.5C3.125 9.95312 3.125 9.63281 3.17969 8.63281C3.33594 5.22656 5.23437 3.33594 8.64844 3.16406C9.63281 3.125 9.95312 3.125 12.5 3.125C15.0469 3.125 15.3672 3.125 16.3672 3.17969C19.7734 3.33594 21.6641 5.23437 21.8359 8.64844C21.875 9.63281 21.875 9.95312 21.875 12.5C21.875 15.0469 21.875 15.3672 21.8203 16.4062Z" fill="#505050"/>
</svg>
