<svg width="25" height="25" viewBox="0 0 25 25" fill="none" xmlns="http://www.w3.org/2000/svg">
<path d="M10.6328 15.3125L15.5156 12.5L10.6328 9.6875V15.3125Z" fill="#505050"/>
<path d="M18.75 0H6.25C4.5924 0 3.00269 0.65848 1.83058 1.83058C0.65848 3.00269 0 4.5924 0 6.25V18.75C0 20.4076 0.65848 21.9973 1.83058 23.1694C3.00269 24.3416 4.5924 25 6.25 25H18.75C20.4076 25 21.9973 24.3416 23.1694 23.1694C24.3416 21.9973 25 20.4076 25 18.75V6.25C25 4.5924 24.3416 3.00269 23.1694 1.83058C21.9973 0.65848 20.4076 0 18.75 0ZM21.875 12.5C21.8842 14.0111 21.756 15.5199 21.4922 17.0078C21.3856 17.4049 21.1765 17.767 20.8858 18.0577C20.5951 18.3484 20.233 18.5575 19.8359 18.6641C18.3672 19.0469 12.5 19.0469 12.5 19.0469C12.5 19.0469 6.64844 19.0469 5.16406 18.6484C4.76698 18.5419 4.40492 18.3328 4.1142 18.0421C3.82349 17.7514 3.61436 17.3893 3.50781 16.9922C3.24441 15.5095 3.11628 14.0059 3.125 12.5C3.11584 10.9889 3.24398 9.4801 3.50781 7.99219C3.6183 7.59535 3.82851 7.2334 4.11842 6.94076C4.40832 6.64811 4.76828 6.43453 5.16406 6.32031C6.63281 5.9375 12.5 5.9375 12.5 5.9375C12.5 5.9375 18.3672 5.9375 19.8359 6.33594C20.233 6.44249 20.5951 6.65161 20.8858 6.94232C21.1765 7.23304 21.3856 7.5951 21.4922 7.99219C21.7634 9.47911 21.8917 10.9886 21.875 12.5Z" fill="#505050"/>
</svg>
